<svg xmlns="http://www.w3.org/2000/svg" width="789" height="112" viewBox="0 0 789 112">
    <g fill="#FFF" fill-rule="nonzero">
        <path d="M322.94 70.78c0 .88-.18 3.35-.18 4.94 0 21.89 15.18 36.18 39.89 36.18 24.89 0 41.3-14.65 46.25-43.06l11.82-67.07H392.3L380.65 67.6c-1.94 12-6.53 18.89-16.76 18.89-8.48 0-12.71-5.12-12.71-13.42 0-.88.18-2.29.18-2.29h-28.42zM758.29 47l-19.6-6c-5.29-1.59-7.23-4.06-7.23-7.94 0-6.53 5.47-10.42 13.76-10.42 8.83 0 14.12 5.12 15.18 11.12h27.89C787.23 14.47 773.29 0 745.76 0c-24.37 0-43.6 15-43.6 38 0 15.53 9.17 22.59 22.41 26.3l17.66 5.12c6.7 1.94 9.52 4.41 9.52 9-.17 6.88-6 10.76-15 10.76-8.12 0-14.65-3.88-16.06-11.64h-28.77c1.94 21.88 18.35 34.41 44.13 34.41 24.35 0 45.18-13.59 45.18-38.3 0-13.24-7.77-22.06-22.94-26.65M693.88 33.54c0-20.13-13.24-31.78-34.6-31.78h-46.77l-19.06 108.38h28.06l6.35-35.83h10.77l17.3 35.83h30l-19.58-38.83c16.06-5.48 27.53-18.36 27.53-37.77m-44.66 18.18h-17.47l4.59-26.13h17.12c9 0 12.89 4.24 12.89 10.59 0 9.89-6.18 15.54-17.13 15.54M582.31 66.89l4.06-23.82h-45.19l3-16.95h49.78l4.24-24.36h-77.67l-19.06 108.38h77.66l4.24-24.53h-49.6l3.18-18.72zM463.93 1.76h-28.42l-19.06 108.38h77.13l4.24-24.53H449.1zM315.37 66.89l4.06-23.82h-45.19l3-16.95h49.78l4.23-24.36h-77.66l-19.06 108.38h77.66l4.23-24.53h-49.59L270 66.89zM235.21 33.54c0-20.13-13.23-31.78-34.59-31.78h-46.77l-19.07 108.38h28.07l6.35-35.83H180l17.3 35.83h30l-19.62-38.83c16.06-5.48 27.53-18.36 27.53-37.77m-44.65 18.18h-17.48l4.6-26.13h17.11c9 0 12.89 4.24 12.89 10.59 0 9.89-6.18 15.54-17.12 15.54M103.37 23.84l27.05-22.61-3.98 22.63zM0 110.14h111.27l3.14-17.77H21.3zM34.54 81.31l21.29-17.79h63.64l-3.13 17.79zM124.53 34.74l-3.13 17.78H69.01l21.3-17.78z"/>
    </g>
</svg>
